<?xml version="1.0" encoding="UTF-8" standalone="no"?>
<svg
   xmlns:dc="http://purl.org/dc/elements/1.1/"
   xmlns:cc="http://creativecommons.org/ns#"
   xmlns:rdf="http://www.w3.org/1999/02/22-rdf-syntax-ns#"
   xmlns:svg="http://www.w3.org/2000/svg"
   xmlns="http://www.w3.org/2000/svg"
   xmlns:sodipodi="http://sodipodi.sourceforge.net/DTD/sodipodi-0.dtd"
   xmlns:inkscape="http://www.inkscape.org/namespaces/inkscape"
   enable-background="new 0 0 200 200"
   height="200px"
   id="Layer_1"
   version="1.1"
   viewBox="0 0 200 200"
   width="200px"
   xml:space="preserve"
   sodipodi:docname="preview-32x28.svg"
   inkscape:export-filename="/home/mbideau/Téléchargements/preview-32x28.png"
   inkscape:export-xdpi="15.518281"
   inkscape:export-ydpi="15.518281"
   inkscape:version="0.92.3 (2405546, 2018-03-11)"><metadata
     id="metadata23"><rdf:RDF><cc:Work
         rdf:about=""><dc:format>image/svg+xml</dc:format><dc:type
           rdf:resource="http://purl.org/dc/dcmitype/StillImage" /></cc:Work></rdf:RDF></metadata><defs
     id="defs21" /><sodipodi:namedview
     pagecolor="#ffffff"
     bordercolor="#666666"
     borderopacity="1"
     objecttolerance="10"
     gridtolerance="10"
     guidetolerance="10"
     inkscape:pageopacity="0"
     inkscape:pageshadow="2"
     inkscape:window-width="926"
     inkscape:window-height="1016"
     id="namedview19"
     showgrid="false"
     inkscape:zoom="2.36"
     inkscape:cx="122.3273"
     inkscape:cy="86.939322"
     inkscape:window-x="69"
     inkscape:window-y="27"
     inkscape:window-maximized="0"
     inkscape:current-layer="Layer_1" /><g
     id="g16"><path
       d="M 47,102.251 V 26.249 c 0,-0.459 0.111,-1.358 0.882,-2.118 0.76,-0.771 1.656,-0.882 2.118,-0.882 h 85.001 v 8.001 c 0,2.559 0.975,5.118 2.925,7.071 1.957,1.951 4.516,2.928 7.074,2.928 h 8 v 61.002 h 6.999 V 41.25 41.249 L 135.001,16.25 H 50 c -2.563,0 -5.122,0.98 -7.067,2.932 C 40.983,21.131 40,23.69 40,26.249 v 76.002 h 7 z"
       id="path2"
       inkscape:connector-curvature="0"
       style="fill:#3f88a8;fill-opacity:1"
       sodipodi:nodetypes="cscscscsccccccscsccc" /><g
       id="g12"><path
         d="M143.502,85.75c0,1.375-1.125,2.502-2.501,2.502H59c-1.373,0-2.498-1.127-2.498-2.502l0,0    c0-1.376,1.125-2.5,2.498-2.5h82.001C142.377,83.25,143.502,84.374,143.502,85.75L143.502,85.75z"
         fill="#5E889E"
         id="path4"
         style="fill:#3f88a8;fill-opacity:1" /><path
         d="M143.502,72.25c0,1.374-1.125,2.5-2.501,2.5H59c-1.373,0-2.498-1.125-2.498-2.5l0,0    c0-1.375,1.125-2.5,2.498-2.5h82.001C142.377,69.75,143.502,70.875,143.502,72.25L143.502,72.25z"
         fill="#5E889E"
         id="path6"
         style="fill:#3f88a8;fill-opacity:1" /><path
         d="M143.502,58.749c0,1.376-1.125,2.501-2.501,2.501H59c-1.373,0-2.498-1.125-2.498-2.501l0,0    c0-1.375,1.125-2.498,2.498-2.498h82.001C142.377,56.25,143.502,57.374,143.502,58.749L143.502,58.749z"
         fill="#5E889E"
         id="path8"
         style="fill:#3f88a8;fill-opacity:1" /><path
         d="M127.5,45.25c0,1.375-1.122,2.5-2.502,2.5H59c-1.373,0-2.498-1.125-2.498-2.5l0,0    c0-1.375,1.125-2.5,2.498-2.5h65.999C126.378,42.75,127.5,43.875,127.5,45.25L127.5,45.25z"
         fill="#5E889E"
         id="path10"
         style="fill:#3f88a8;fill-opacity:1" /></g><path
       d="m 192.678,66.07 c -4.881,-4.879 -11.278,-7.322 -17.68,-7.322 h -7.999 V 98.25 c 0,0.767 -0.291,1.534 -0.878,2.12 -0.585,0.586 -1.352,0.88 -2.122,0.88 H 36.001 c -0.771,0 -1.538,-0.294 -2.125,-0.88 -0.584,-0.586 -0.878,-1.353 -0.878,-2.12 V 58.749 h -7.996 c -6.401,0 -12.798,2.442 -17.68,7.322 C 2.441,70.956 0,77.353 0,83.75 v 68 c 0,1.79 0.685,3.582 2.05,4.949 1.369,1.365 3.158,2.052 4.95,2.052 H 33 V 143.75 c 0,-0.768 0.291,-1.534 0.878,-2.12 0.584,-0.586 1.355,-0.88 2.122,-0.88 h 4 v 33.001 c 0,2.559 0.975,5.116 2.928,7.071 1.95,1.949 4.512,2.928 7.071,2.928 h 99.998 c 2.563,0 5.121,-0.979 7.075,-2.928 1.949,-1.955 3.08674,-4.51768 2.932,-7.071 V 140.75 H 164 c 0.771,0 1.533,0.294 2.121,0.88 0.588,0.586 0.98036,1.35973 0.879,2.12 v 15.002 h 26.001 c 1.792,0 3.583,-0.687 4.949,-2.052 1.369,-1.367 2.05,-3.159 2.05,-4.949 v -68 c 0,-6.398 -2.437,-12.795 -7.322,-17.681 z m -39.677,107.681 c 0,0.462 -0.115,1.356 -0.882,2.122 -0.76,0.763 -1.656,0.878 -2.122,0.878 H 50 c -0.466,0 -1.358,-0.115 -2.122,-0.878 -0.763,-0.766 -0.850052,-1.66085 -0.878,-2.122 V 140.75 h 106.001 z m 33,-28.002 h -5 c -1.372,0 -2.501,-1.123 -2.501,-2.498 0,-1.376 1.129,-2.501 2.501,-2.501 h 5 c 1.376,0 2.502,1.125 2.502,2.501 0,1.375 -1.126,2.498 -2.502,2.498 z m -2.498,-53.168 c -2.767,0 -5.003,-2.236 -5.003,-5 0,-2.76 2.236,-5 5.003,-5 2.76,0 5,2.24 5,5 0,2.764 -2.24,5 -5,5 z"
       id="path14"
       inkscape:connector-curvature="0"
       style="fill:#3f88a8;fill-opacity:1"
       sodipodi:nodetypes="cscscsscscscsscscscscscsscscssscscsscscsscsccsssssssssssss" /></g><rect
     style="fill:#f2f2f2;fill-opacity:1;stroke:none;stroke-width:3.23363781;stroke-miterlimit:4;stroke-dasharray:none;stroke-opacity:1"
     id="rect856"
     width="68.513771"
     height="13.200866"
     x="131.91881"
     y="9.2406187"
     transform="matrix(0.70442361,0.70977981,-0.676146,0.73676766,0,0)" /><path
     inkscape:connector-curvature="0"
     d="M 22.445385,46.779978 C 13.989468,55.230506 9.3311017,66.465548 9.3311017,78.41726 c 0,11.951712 4.6583663,23.18675 13.1142833,31.63727 8.729385,8.72266 20.192092,13.08196 31.660185,13.08196 7.884735,0 15.770819,-2.0638 22.76645,-6.1887 l 40.12148,40.08917 c 2.11499,2.11229 4.91164,3.26947 7.89147,3.26947 0.0472,0 0.0943,0 0.14145,0 3.03239,-0.0377 5.85732,-1.26899 7.95209,-3.47019 4.13974,-4.34584 3.92823,-11.46002 -0.47283,-15.85704 L 92.671132,101.17428 c 4.045419,-6.819158 6.208909,-14.621718 6.208909,-22.75702 0,-11.951712 -4.658369,-23.186754 -13.114286,-31.637282 0,0 0,0 0,0 -17.461463,-17.445299 -45.864294,-17.442605 -63.32037,0 z M 128.69736,144.78886 c 2.34938,2.34805 2.51911,6.08498 0.37988,8.33063 -1.08714,1.13969 -2.54877,1.77822 -4.11683,1.79709 -0.0257,0 -0.0498,0 -0.0742,0 -1.54246,0 -2.99062,-0.59948 -4.08314,-1.69201 L 81.409144,113.86152 c 1.511478,-1.16392 2.971764,-2.42483 4.356611,-3.80834 1.378111,-1.37675 2.643063,-2.83434 3.816407,-4.34986 z M 93.492882,78.41726 c 0,10.511632 -4.09662,20.392812 -11.535456,27.82491 -15.355905,15.34782 -40.34646,15.34512 -55.701018,0 -7.440182,-7.432098 -11.536797,-17.313278 -11.536797,-27.82491 0,-10.510286 4.096615,-20.392811 11.53545,-27.82626 7.677278,-7.67189 17.764567,-11.508507 27.850509,-11.508507 10.084596,0 20.173231,3.836617 27.850509,11.508507 v 0 c 7.440183,7.433449 11.536803,17.315974 11.536803,27.82626 z"
     id="path2-3"
     style="fill:#3f88a8;fill-opacity:1;stroke-width:1.34712732" /><ellipse
     style="fill:none;fill-opacity:1;stroke:#3f88a8;stroke-width:2.67037749;stroke-miterlimit:4;stroke-dasharray:none;stroke-opacity:1"
     id="path818"
     cx="54.105206"
     cy="78.339447"
     rx="32.342995"
     ry="32.342991" /><ellipse
     style="fill:#f2f2f2;fill-opacity:1;stroke:#3f88a8;stroke-width:3.35747337;stroke-miterlimit:4;stroke-dasharray:none;stroke-opacity:1"
     id="path818-3"
     cx="53.321499"
     cy="77.971344"
     rx="39.668388"
     ry="41.686523" /></svg>